<?xml version="1.0" encoding="UTF-8"?>
<svg id="Layer_1" data-name="Layer 1" xmlns="http://www.w3.org/2000/svg" viewBox="0 0 503.9922 554.3035">
  <defs>
    <style>
      .cls-1 {
        fill: #9b192b;
      }

      .cls-2 {
        fill: none;
        stroke: #2e383c;
        stroke-miterlimit: 10;
        stroke-width: 46px;
      }
    </style>
  </defs>
  <g>
    <polyline class="cls-2" points="32.303 290.7523 190.7307 133.6872 288.4677 220.6441 427.3358 84.4723"/>
    <polygon class="cls-1" points="427.3358 0 444.3127 52.2495 499.2511 52.2495 454.805 84.5414 471.7819 136.7909 427.3358 104.4989 382.8898 136.7909 399.8667 84.5414 355.4206 52.2495 410.359 52.2495 427.3358 0"/>
  </g>
  <g>
    <path d="M13.8604,434.8113h31.0811v-76.0225H13.8604v-30.2402h98.2832v30.2402h-31.0811v76.0225h31.0811v30.2412H13.8604v-30.2412Z"/>
    <path d="M133.1382,396.1707c0-46.2021,22.6807-70.1426,55.8618-70.1426s55.8618,23.9404,55.8618,70.1426c0,47.4609-22.6807,71.4023-55.8618,71.4023s-55.8618-23.9414-55.8618-71.4023ZM207.9009,396.1707c0-26.041-7.1406-39.0615-18.9009-39.0615s-18.9004,13.0205-18.9004,39.0615c0,29.8203,7.1401,42.001,18.9004,42.001s18.9009-12.1807,18.9009-42.001ZM171.7793,463.7928l36.5415-3.7803c3.7798,12.1807,15.5405,15.1201,24.7808,15.1201,4.2002,0,8.4004-1.4697,11.3403-2.9395l6.3003,26.4609c-4.6201,2.9395-12.1807,5.04-21.8408,5.04-28.3511,0-48.3018-16.3809-57.1221-39.9014Z"/>
    <path d="M265.4365,328.5486h51.2422c29.4004,0,54.6016,10.9199,54.6016,45.3613,0,33.3906-26.041,47.8809-54.6016,47.8809h-15.1211v43.2617h-36.1211v-136.5039ZM314.998,393.2303c14.2803,0,21.001-7.1406,21.001-19.3203s-7.5605-16.8008-21.001-16.8008h-13.4404v36.1211h13.4404Z"/>
    <path d="M395.6348,328.5486h92.8232v30.2402h-56.7021v21.4209h48.3018v30.2412h-48.3018v24.3604h58.8018v30.2412h-94.9229v-136.5039Z"/>
  </g>
</svg>